<?xml version="1.0" encoding="UTF-8" standalone="no"?>
<!DOCTYPE svg PUBLIC "-//W3C//DTD SVG 1.1//EN" "http://www.w3.org/Graphics/SVG/1.1/DTD/svg11.dtd">
<svg width="100%" height="100%" viewBox="0 0 1082 1082" version="1.1" xmlns="http://www.w3.org/2000/svg" xmlns:xlink="http://www.w3.org/1999/xlink" xml:space="preserve" xmlns:serif="http://www.serif.com/" style="fill-rule:evenodd;clip-rule:evenodd;stroke-linejoin:round;stroke-miterlimit:2;">
    <g transform="matrix(12.0597,0,0,12.0597,-61.4788,-61.4788)">
        <path d="M95,49.892C95,49.892 94.917,49.908 94.776,49.936C93.459,48.923 86.414,43.475 79.617,37.708C80.344,28.843 81.49,20.02 81.706,18.381C81.82,18.306 81.896,18.257 81.896,18.257C81.896,18.257 81.828,18.266 81.72,18.28C81.734,18.172 81.743,18.104 81.743,18.104C81.743,18.104 81.693,18.179 81.616,18.294C79.969,18.509 71.134,19.638 62.25,20.366C56.496,13.583 51.067,6.534 50.062,5.223C50.09,5.089 50.108,5 50.108,5C50.108,5 50.066,5.055 50,5.141C49.933,5.055 49.892,5 49.892,5C49.892,5 49.908,5.083 49.936,5.224C48.923,6.54 43.475,13.586 37.708,20.383C28.843,19.656 20.02,18.511 18.382,18.294C18.307,18.18 18.257,18.104 18.257,18.104C18.257,18.104 18.266,18.173 18.28,18.281C18.172,18.267 18.104,18.258 18.104,18.258C18.104,18.258 18.179,18.308 18.294,18.385C18.509,20.032 19.638,28.867 20.367,37.751C13.583,43.504 6.534,48.933 5.222,49.938C5.089,49.91 5,49.892 5,49.892C5,49.892 5.055,49.934 5.141,50C5.055,50.067 5,50.108 5,50.108C5,50.108 5.083,50.092 5.224,50.064C6.541,51.077 13.586,56.525 20.383,62.292C19.656,71.157 18.51,79.98 18.293,81.619C18.179,81.694 18.103,81.743 18.103,81.743C18.103,81.743 18.172,81.734 18.28,81.72C18.266,81.828 18.256,81.896 18.256,81.896C18.256,81.896 18.306,81.821 18.383,81.706C20.03,81.491 28.864,80.362 37.748,79.634C43.503,86.417 48.931,93.465 49.936,94.777C49.91,94.911 49.892,95 49.892,95C49.892,95 49.934,94.945 50,94.859C50.066,94.945 50.108,95 50.108,95C50.108,95 50.092,94.917 50.064,94.776C51.077,93.46 56.525,86.414 62.292,79.617C71.157,80.344 79.98,81.489 81.619,81.706C81.694,81.82 81.743,81.896 81.743,81.896C81.743,81.896 81.734,81.827 81.72,81.719C81.828,81.733 81.896,81.742 81.896,81.742C81.896,81.742 81.821,81.692 81.706,81.615C81.491,79.968 80.362,71.133 79.634,62.249C86.417,56.494 93.465,51.066 94.777,50.061C94.91,50.09 95,50.108 95,50.108C95,50.108 94.945,50.066 94.859,50C94.945,49.933 95,49.892 95,49.892ZM18.559,18.563C20.162,19.647 25.866,23.564 31.085,27.837C30.497,28.459 29.922,29.052 29.37,29.604C28.883,30.091 28.365,30.594 27.825,31.108C23.469,25.863 19.631,20.181 18.559,18.563ZM5.539,50.003C7.457,49.633 14.257,48.37 20.954,47.703C20.977,48.559 20.991,49.385 20.991,50.166C20.991,50.855 20.981,51.577 20.962,52.322C14.172,51.693 7.439,50.389 5.539,50.003ZM18.563,81.441C19.648,79.838 23.564,74.135 27.837,68.916C28.459,69.504 29.052,70.078 29.604,70.631C30.091,71.118 30.594,71.636 31.108,72.176C25.863,76.531 20.18,80.369 18.563,81.441ZM49.997,5.539C50.367,7.457 51.63,14.257 52.297,20.954C51.441,20.978 50.615,20.991 49.834,20.991C49.145,20.991 48.423,20.981 47.678,20.962C48.307,14.172 49.611,7.439 49.997,5.539ZM50.003,94.461C49.633,92.543 48.37,85.743 47.703,79.046C48.559,79.022 49.385,79.009 50.166,79.009C50.855,79.009 51.577,79.019 52.322,79.038C51.693,85.828 50.388,92.561 50.003,94.461ZM81.437,18.559C80.353,20.162 76.436,25.865 72.163,31.084C71.541,30.496 70.948,29.922 70.396,29.369C69.909,28.882 69.406,28.364 68.892,27.824C74.137,23.469 79.819,19.631 81.437,18.559ZM81.441,81.437C79.838,80.353 74.135,76.436 68.916,72.163C69.504,71.542 70.078,70.948 70.63,70.396C71.117,69.909 71.635,69.406 72.175,68.892C76.531,74.137 80.369,79.819 81.441,81.437ZM79.046,52.297C79.022,51.441 79.009,50.615 79.009,49.834C79.009,49.145 79.02,48.423 79.038,47.678C85.828,48.307 92.56,49.612 94.461,49.997C92.543,50.367 85.743,51.63 79.046,52.297Z" style="fill:url(#_Radial1);fill-rule:nonzero;"/>
    </g>
    <defs>
        <radialGradient id="_Radial1" cx="0" cy="0" r="1" gradientUnits="userSpaceOnUse" gradientTransform="matrix(45,0,0,45,50,50)"><stop offset="0" style="stop-color:rgb(161,223,255);stop-opacity:1"/><stop offset="0.04" style="stop-color:rgb(139,207,255);stop-opacity:1"/><stop offset="0.07" style="stop-color:rgb(57,146,255);stop-opacity:1"/><stop offset="1" style="stop-color:rgb(0,76,180);stop-opacity:1"/></radialGradient>
    </defs>
</svg>
